<svg width="30" height="33" viewBox="0 0 30 33" fill="none" xmlns="http://www.w3.org/2000/svg">
<path d="M23.6667 10.6667C23.6667 8.36812 22.7536 6.16372 21.1283 4.53841C19.5029 2.91309 17.2985 2 15 2C12.7015 2 10.4971 2.91309 8.87174 4.53841C7.24643 6.16372 6.33333 8.36812 6.33333 10.6667C6.33333 20.7778 2 23.6667 2 23.6667H28C28 23.6667 23.6667 20.7778 23.6667 10.6667Z" stroke="#4E60F6" stroke-width="3" stroke-linecap="round" stroke-linejoin="round"/>
<path d="M17.4988 29.4446C17.2448 29.8824 16.8803 30.2457 16.4417 30.4983C16.0032 30.7509 15.506 30.8839 14.9999 30.8839C14.4938 30.8839 13.9965 30.7509 13.558 30.4983C13.1194 30.2457 12.7549 29.8824 12.501 29.4446" stroke="#4E60F6" stroke-width="3" stroke-linecap="round" stroke-linejoin="round"/>
</svg>
